<?xml version="1.0" standalone="no"?>
<!DOCTYPE svg PUBLIC "-//W3C//DTD SVG 1.0//EN" "http://www.w3.org/TR/2001/REC-SVG-20010904/DTD/svg10.dtd">
<svg xmlns="http://www.w3.org/2000/svg" xmlns:xlink="http://www.w3.org/1999/xlink" id="body_1" width="350" height="81">

<defs>
    <linearGradient transform="matrix(1 0 0 1 0 0)"  id="1" x1="0" y1="50" x2="100" y2="50">
        <stop stop-color="#E3C7FF" offset="0%"/>
        <stop stop-color="#E9D0FF" offset="100%"/>
    </linearGradient>
    <linearGradient transform="matrix(1 0 0 1 0 0)"  id="216" x1="-78.50702" y1="57.36594" x2="73.89721" y2="127.83186">
        <stop stop-color="#A961F2" offset="0%"/>
        <stop stop-color="#7B46B0" offset="100%"/>
    </linearGradient>
    <linearGradient transform="matrix(1 0 0 1 0 0)"  id="459" x1="-78.50702" y1="59.806725" x2="73.89721" y2="153.6223">
        <stop stop-color="#A961F2" offset="0%"/>
        <stop stop-color="#7B46B0" offset="100%"/>
    </linearGradient>
    <linearGradient transform="matrix(1 0 0 1 0 0)"  id="702" x1="-78.50702" y1="65.03253" x2="73.89721" y2="208.84053">
        <stop stop-color="#A961F2" offset="0%"/>
        <stop stop-color="#7B46B0" offset="100%"/>
    </linearGradient>
</defs>

<g transform="matrix(0.3201581 0 0 0.3201581 0.673907 -0)">
	<g>
        <path d="M460 193L460 172.7787L399.55484 172.7787L399.55484 134.3112L447.17545 134.3112L447.17545 114.84232L399.55484 114.84232L399.55484 77.12725L460 77.12725L460 57L374 57L374 193L460 193zM530.00287 193L568 97L549.795 97C 548.239 97 546.9009 97.40546 545.7806 98.21638C 544.6603 99.02729 543.88226 100.05653 543.4466 101.30409L543.4466 101.30409L524.4947 152.57895C 523.3744 155.5731 522.45636 158.50487 521.7406 161.37427C 521.02484 164.24367 520.3869 167.11307 519.8268 169.98245C 519.2666 167.11307 518.62866 164.24367 517.9129 161.37427C 517.19714 158.50487 516.31024 155.5731 515.25214 152.57895L515.25214 152.57895L496.7671 101.30409C 496.33142 100.05653 495.53784 99.02729 494.38644 98.21638C 493.23502 97.40546 491.81906 97 490.13858 97L490.13858 97L471 97L509.09048 193L530.00287 193zM604.5345 194C 607.9224 194 611.0023 193.72008 613.7743 193.16023C 616.5462 192.60037 619.1641 191.7606 621.62805 190.6409C 624.092 189.52121 626.47894 188.13713 628.7889 186.4887C 631.0988 184.84024 633.45496 182.92743 635.8573 180.75023L635.8573 180.75023L637.8901 187.56174C 638.50604 189.5523 639.43 190.87418 640.662 191.52733C 641.894 192.1805 643.5879 192.50706 645.74384 192.50706L645.74384 192.50706L656 192.50706L656 132.04335C 656 126.63148 655.2146 121.655045 653.64386 117.114044C 652.0731 112.573044 649.77856 108.66965 646.76025 105.40386C 643.7419 102.13808 640.0614 99.587654 635.7187 97.752594C 631.37604 95.917534 626.43274 95 620.8889 95C 605.48926 95 592.338 100.03864 581.43506 110.11593L581.43506 110.11593L585.59296 117.487274C 586.27057 118.66918 587.16376 119.66447 588.2725 120.47314C 589.3813 121.28181 590.7056 121.68614 592.2456 121.68614C 594.09357 121.68614 595.78754 121.25071 597.3275 120.37983C 598.86743 119.50896 600.546 118.52922 602.36316 117.44062C 604.1803 116.35203 606.32086 115.37229 608.7848 114.50141C 611.2487 113.63054 614.3287 113.1951 618.02454 113.1951C 623.1372 113.1951 627.0333 114.73469 629.7129 117.81386C 632.3924 120.89303 633.7322 125.63619 633.7322 132.04335L633.7322 132.04335L633.7322 137.64185C 622.95245 137.89067 613.9283 138.94817 606.65967 140.81433C 599.39105 142.6805 593.57 145.02875 589.1965 147.8591C 584.823 150.68944 581.6969 153.86192 579.8181 157.37653C 577.9394 160.89114 577 164.45241 577 168.06032C 577 172.3525 577.6776 176.11592 579.0328 179.35062C 580.38794 182.5853 582.28204 185.29123 584.7152 187.46843C 587.1483 189.64561 590.0589 191.2785 593.4468 192.36711C 596.8347 193.4557 600.5306 194 604.5345 194zM611.60583 178C 607.55994 178 604.2809 177.14554 601.7685 175.43661C 599.25616 173.7277 598 170.88966 598 166.92253C 598 164.90845 598.60364 163.04695 599.81085 161.33803C 601.01807 159.6291 603.0573 158.1338 605.9286 156.85211C 608.7998 155.57042 612.60095 154.51761 617.33203 153.69366C 622.06305 152.86972 627.9524 152.30516 635 152L635 152L635 167.83803C 633.2381 169.54695 631.4925 171.027 629.76324 172.27817C 628.03394 173.52934 626.23944 174.58215 624.37964 175.43661C 622.51984 176.29108 620.54584 176.93193 618.45764 177.35916C 616.3695 177.78639 614.0855 178 611.60583 178zM704 192L704 53L681 53L681 192L704 192zM754.21875 193L754.21875 105.15491C 754.21875 103.46197 754.1719 101.62794 754.0781 99.65283C 753.9844 97.677734 753.8125 95.6556 753.5625 93.58645L753.5625 93.58645L795.09375 170.9917C 796.03125 172.74734 797.25 174.11111 798.75 175.083C 800.25 176.05487 802 176.5408 804 176.5408L804 176.5408L807.46875 176.5408C 809.46875 176.5408 811.21875 176.05487 812.71875 175.083C 814.21875 174.11111 815.4375 172.74734 816.375 170.9917L816.375 170.9917L857.34375 93.86861C 857.15625 95.87506 857.0156 97.85016 856.9219 99.793915C 856.8281 101.73766 856.78125 103.524666 856.78125 105.15491L856.78125 105.15491L856.78125 193L879 193L879 57L859.96875 57C 858.84375 57 857.875 57.03135 857.0625 57.09405C 856.25 57.156754 855.5156 57.313507 854.8594 57.564316C 854.2031 57.81512 853.6094 58.222683 853.0781 58.787C 852.5469 59.351315 852.03125 60.103733 851.53125 61.04426L851.53125 61.04426L811.40625 136.38036C 810.34375 138.38681 809.34375 140.48732 808.40625 142.68188C 807.46875 144.87643 806.5625 147.10236 805.6875 149.35962C 804.8125 147.16505 803.9219 144.98618 803.0156 142.82297C 802.1094 140.65974 801.125 138.57492 800.0625 136.56847L800.0625 136.56847L759.5625 61.04426C 759.0625 60.103733 758.53125 59.351315 757.96875 58.787C 757.40625 58.222683 756.7969 57.81512 756.1406 57.564316C 755.4844 57.313507 754.75 57.156754 753.9375 57.09405C 753.125 57.03135 752.15625 57 751.03125 57L751.03125 57L732 57L732 193L754.21875 193zM986 193L986 172.12033L932.0601 172.12033L932.0601 57L907 57L907 193L986 193z" stroke="none" fill="#252D39" fill-rule="nonzero" />
        <path d="M53 43C 53 35.268013 59.268013 29 67 29L67 29L288 29C 295.732 29 302 35.268013 302 43L302 43L302 82C 302 89.73199 295.732 96 288 96L288 96L67 96C 59.268013 96 53 89.73199 53 82L53 82L53 43z" stroke="none" fill="url(#1)" />
        <path d="M123 37C 128.52284 37 133 41.477154 133 47L133 47L133 78C 133 83.52285 128.52284 88 123 88L123 88L73 88C 67.47715 88 63 83.52285 63 78L63 78L63 47C 63 41.477154 67.47715 37 73 37L73 37L123 37zM123 41L73 41C 69.761604 41 67.12243 43.565575 67.004135 46.775063L67.004135 46.775063L67 47L67 78C 67 81.238396 69.565575 83.87757 72.77506 83.995865L72.77506 83.995865L73 84L123 84C 126.238396 84 128.87758 81.434425 128.99586 78.22494L128.99586 78.22494L129 78L129 47C 129 43.761604 126.434425 41.12243 123.22494 41.00414L123.22494 41.00414L123 41z" stroke="none" fill="#A960F1" fill-rule="nonzero" />
        <path d="M104 167C 109.52285 167 114 171.47716 114 177L114 177L114 208C 114 213.52284 109.52285 218 104 218L104 218L73 218C 67.47715 218 63 213.52284 63 208L63 208L63 177C 63 171.47716 67.47715 167 73 167L73 167L104 167zM104 171L73 171C 69.761604 171 67.12243 173.56558 67.004135 176.77505L67.004135 176.77505L67 177L67 208C 67 211.2384 69.565575 213.87758 72.77506 213.99586L72.77506 213.99586L73 214L104 214C 107.238396 214 109.87757 211.43442 109.995865 208.22495L109.995865 208.22495L110 208L110 177C 110 173.7616 107.434425 171.12242 104.22494 171.00414L104.22494 171.00414L104 171z" stroke="none" fill="#A960F1" fill-rule="nonzero" />
        <path d="M183 37C 188.52284 37 193 41.477154 193 47L193 47L193 78C 193 83.52285 188.52284 88 183 88L183 88L152 88C 146.47716 88 142 83.52285 142 78L142 78L142 47C 142 41.477154 146.47716 37 152 37L152 37L183 37zM183 41L152 41C 148.7616 41 146.12242 43.565575 146.00414 46.775063L146.00414 46.775063L146 47L146 78C 146 81.238396 148.56558 83.87757 151.77505 83.995865L151.77505 83.995865L152 84L183 84C 186.2384 84 188.87758 81.434425 188.99586 78.22494L188.99586 78.22494L189 78L189 47C 189 43.761604 186.43442 41.12243 183.22495 41.00414L183.22495 41.00414L183 41z" stroke="none" fill="#A960F1" fill-rule="nonzero" />
        <path d="M202 47C 202 41.477154 206.47716 37 212 37L212 37L282 37C 287.52286 37 292 41.477154 292 47L292 47L292 78C 292 83.52285 287.52286 88 282 88L282 88L212 88C 206.47716 88 202 83.52285 202 78L202 78L202 47z" stroke="none" fill="url(#216)" />
        <path d="M161 102C 166.52284 102 171 106.47715 171 112L171 112L171 143C 171 148.52284 166.52284 153 161 153L161 153L73 153C 67.47715 153 63 148.52284 63 143L63 143L63 112C 63 106.47715 67.47715 102 73 102L73 102L161 102zM161 106L73 106C 69.761604 106 67.12243 108.565575 67.004135 111.77506L67.004135 111.77506L67 112L67 143C 67 146.2384 69.565575 148.87758 72.77506 148.99586L72.77506 148.99586L73 149L161 149C 164.2384 149 166.87758 146.43442 166.99586 143.22495L166.99586 143.22495L167 143L167 112C 167 108.761604 164.43442 106.12243 161.22495 106.004135L161.22495 106.004135L161 106z" stroke="none" fill="#A960F1" fill-rule="nonzero" />
        <path d="M122 177C 122 171.47716 126.47715 167 132 167L132 167L190 167C 195.52284 167 200 171.47716 200 177L200 177L200 208C 200 213.52284 195.52284 218 190 218L190 218L132 218C 126.47715 218 122 213.52284 122 208L122 208L122 177z" stroke="none" fill="url(#459)" />
        <path d="M179 112C 179 106.47715 183.47716 102 189 102L189 102L232 102C 237.52284 102 242 106.47715 242 112L242 112L242 143C 242 148.52284 237.52284 153 232 153L232 153L189 153C 183.47716 153 179 148.52284 179 143L179 143L179 112z" stroke="none" fill="url(#702)" />
        <path transform="matrix(4.3711392E-08 1 -1 4.3711392E-08 98.99999 26.999996)"  d="M39.2641 55.60814L48.52895 68.68793C 49.80587 70.49064 49.379635 72.987175 47.576923 74.2641C 46.901012 74.74287 46.093147 75 45.264854 75L45.264854 75L26.735147 75C 24.526009 75 22.735147 73.20914 22.735147 71C 22.735147 70.17171 22.992281 69.36384 23.471048 68.68793L23.471048 68.68793L32.7359 55.60814C 34.01282 53.805428 36.509357 53.37919 38.31207 54.65611C 38.680923 54.91738 39.002827 55.239285 39.2641 55.60814z" stroke="none" fill="#522F76" fill-rule="nonzero" />
	</g>
</g>
</svg>